G04 #@! TF.GenerationSoftware,KiCad,Pcbnew,(5.1.5)-3*
G04 #@! TF.CreationDate,2020-03-30T22:37:45+02:00*
G04 #@! TF.ProjectId,Zigbee-dongle-adapter,5a696762-6565-42d6-946f-6e676c652d61,rev?*
G04 #@! TF.SameCoordinates,Original*
G04 #@! TF.FileFunction,Soldermask,Top*
G04 #@! TF.FilePolarity,Negative*
%FSLAX46Y46*%
G04 Gerber Fmt 4.6, Leading zero omitted, Abs format (unit mm)*
G04 Created by KiCad (PCBNEW (5.1.5)-3) date 2020-03-30 22:37:45*
%MOMM*%
%LPD*%
G04 APERTURE LIST*
%ADD10C,0.050000*%
%ADD11C,0.150000*%
G04 APERTURE END LIST*
D10*
X81280000Y-60960000D02*
X81280000Y-50800000D01*
X106680000Y-60960000D02*
X81280000Y-60960000D01*
X106680000Y-50800000D02*
X106680000Y-60960000D01*
X81280000Y-50800000D02*
X106680000Y-50800000D01*
D11*
G36*
X103030721Y-52810174D02*
G01*
X103130995Y-52851709D01*
X103130996Y-52851710D01*
X103221242Y-52912010D01*
X103297990Y-52988758D01*
X103297991Y-52988760D01*
X103358291Y-53079005D01*
X103389516Y-53154389D01*
X103401067Y-53176000D01*
X103416612Y-53194941D01*
X103435554Y-53210487D01*
X103457165Y-53222038D01*
X103480614Y-53229151D01*
X103505000Y-53231553D01*
X103529386Y-53229151D01*
X103552835Y-53222038D01*
X103574446Y-53210487D01*
X103593387Y-53194942D01*
X103608933Y-53176000D01*
X103620484Y-53154389D01*
X103651709Y-53079005D01*
X103712009Y-52988760D01*
X103712010Y-52988758D01*
X103788758Y-52912010D01*
X103879004Y-52851710D01*
X103879005Y-52851709D01*
X103979279Y-52810174D01*
X104085730Y-52789000D01*
X104194270Y-52789000D01*
X104300721Y-52810174D01*
X104400995Y-52851709D01*
X104400996Y-52851710D01*
X104491242Y-52912010D01*
X104567990Y-52988758D01*
X104567991Y-52988760D01*
X104628291Y-53079005D01*
X104669826Y-53179279D01*
X104691000Y-53285730D01*
X104691000Y-53394270D01*
X104669826Y-53500721D01*
X104628291Y-53600995D01*
X104628290Y-53600996D01*
X104567990Y-53691242D01*
X104491242Y-53767990D01*
X104445812Y-53798345D01*
X104400995Y-53828291D01*
X104325611Y-53859516D01*
X104304000Y-53871067D01*
X104285059Y-53886612D01*
X104269513Y-53905554D01*
X104257962Y-53927165D01*
X104250849Y-53950614D01*
X104248447Y-53975000D01*
X104250849Y-53999386D01*
X104257962Y-54022835D01*
X104269513Y-54044446D01*
X104285058Y-54063387D01*
X104304000Y-54078933D01*
X104325611Y-54090484D01*
X104400995Y-54121709D01*
X104400996Y-54121710D01*
X104491242Y-54182010D01*
X104567990Y-54258758D01*
X104567991Y-54258760D01*
X104628291Y-54349005D01*
X104669826Y-54449279D01*
X104691000Y-54555730D01*
X104691000Y-54664270D01*
X104669826Y-54770721D01*
X104628291Y-54870995D01*
X104627077Y-54872812D01*
X104567990Y-54961242D01*
X104491242Y-55037990D01*
X104445812Y-55068345D01*
X104400995Y-55098291D01*
X104325611Y-55129516D01*
X104304000Y-55141067D01*
X104285059Y-55156612D01*
X104269513Y-55175554D01*
X104257962Y-55197165D01*
X104250849Y-55220614D01*
X104248447Y-55245000D01*
X104250849Y-55269386D01*
X104257962Y-55292835D01*
X104269513Y-55314446D01*
X104285058Y-55333387D01*
X104304000Y-55348933D01*
X104325611Y-55360484D01*
X104400995Y-55391709D01*
X104445812Y-55421655D01*
X104491242Y-55452010D01*
X104567990Y-55528758D01*
X104567991Y-55528760D01*
X104628291Y-55619005D01*
X104669826Y-55719279D01*
X104691000Y-55825730D01*
X104691000Y-55934270D01*
X104669826Y-56040721D01*
X104628291Y-56140995D01*
X104628290Y-56140996D01*
X104567990Y-56231242D01*
X104491242Y-56307990D01*
X104445812Y-56338345D01*
X104400995Y-56368291D01*
X104325611Y-56399516D01*
X104304000Y-56411067D01*
X104285059Y-56426612D01*
X104269513Y-56445554D01*
X104257962Y-56467165D01*
X104250849Y-56490614D01*
X104248447Y-56515000D01*
X104250849Y-56539386D01*
X104257962Y-56562835D01*
X104269513Y-56584446D01*
X104285058Y-56603387D01*
X104304000Y-56618933D01*
X104325611Y-56630484D01*
X104400995Y-56661709D01*
X104400996Y-56661710D01*
X104491242Y-56722010D01*
X104567990Y-56798758D01*
X104567991Y-56798760D01*
X104628291Y-56889005D01*
X104669826Y-56989279D01*
X104691000Y-57095730D01*
X104691000Y-57204270D01*
X104669826Y-57310721D01*
X104628291Y-57410995D01*
X104599959Y-57453396D01*
X104567990Y-57501242D01*
X104491242Y-57577990D01*
X104445812Y-57608345D01*
X104400995Y-57638291D01*
X104325611Y-57669516D01*
X104304000Y-57681067D01*
X104285059Y-57696612D01*
X104269513Y-57715554D01*
X104257962Y-57737165D01*
X104250849Y-57760614D01*
X104248447Y-57785000D01*
X104250849Y-57809386D01*
X104257962Y-57832835D01*
X104269513Y-57854446D01*
X104285058Y-57873387D01*
X104304000Y-57888933D01*
X104325611Y-57900484D01*
X104400995Y-57931709D01*
X104445812Y-57961655D01*
X104491242Y-57992010D01*
X104567990Y-58068758D01*
X104567991Y-58068760D01*
X104628291Y-58159005D01*
X104669826Y-58259279D01*
X104691000Y-58365730D01*
X104691000Y-58474270D01*
X104669826Y-58580721D01*
X104628291Y-58680995D01*
X104628290Y-58680996D01*
X104567990Y-58771242D01*
X104491242Y-58847990D01*
X104445812Y-58878345D01*
X104400995Y-58908291D01*
X104300721Y-58949826D01*
X104194270Y-58971000D01*
X104085730Y-58971000D01*
X103979279Y-58949826D01*
X103879005Y-58908291D01*
X103834188Y-58878345D01*
X103788758Y-58847990D01*
X103712010Y-58771242D01*
X103691012Y-58739816D01*
X103649932Y-58678336D01*
X103634386Y-58659394D01*
X103615444Y-58643849D01*
X103593833Y-58632298D01*
X103570385Y-58625185D01*
X103545998Y-58622783D01*
X103521612Y-58625185D01*
X103498163Y-58632298D01*
X103476553Y-58643849D01*
X103457611Y-58659395D01*
X103442066Y-58678337D01*
X103430515Y-58699948D01*
X103423402Y-58723396D01*
X103421000Y-58747782D01*
X103421000Y-58971000D01*
X102319000Y-58971000D01*
X102319000Y-57869000D01*
X102542218Y-57869000D01*
X102566604Y-57866598D01*
X102590053Y-57859485D01*
X102611664Y-57847934D01*
X102630606Y-57832389D01*
X102646151Y-57813447D01*
X102657702Y-57791836D01*
X102664815Y-57768387D01*
X102667216Y-57744002D01*
X103072783Y-57744002D01*
X103075185Y-57768388D01*
X103082298Y-57791837D01*
X103093849Y-57813447D01*
X103109395Y-57832389D01*
X103128337Y-57847934D01*
X103149948Y-57859485D01*
X103173396Y-57866598D01*
X103197782Y-57869000D01*
X103421000Y-57869000D01*
X103421000Y-58092218D01*
X103423402Y-58116604D01*
X103430515Y-58140053D01*
X103442066Y-58161664D01*
X103457611Y-58180606D01*
X103476553Y-58196151D01*
X103498164Y-58207702D01*
X103521613Y-58214815D01*
X103545999Y-58217217D01*
X103570385Y-58214815D01*
X103593834Y-58207702D01*
X103615445Y-58196151D01*
X103634387Y-58180606D01*
X103649932Y-58161664D01*
X103712009Y-58068760D01*
X103712010Y-58068758D01*
X103788758Y-57992010D01*
X103834188Y-57961655D01*
X103879005Y-57931709D01*
X103954389Y-57900484D01*
X103976000Y-57888933D01*
X103994941Y-57873388D01*
X104010487Y-57854446D01*
X104022038Y-57832835D01*
X104029151Y-57809386D01*
X104031553Y-57785000D01*
X104029151Y-57760614D01*
X104022038Y-57737165D01*
X104010487Y-57715554D01*
X103994942Y-57696613D01*
X103976000Y-57681067D01*
X103954389Y-57669516D01*
X103879005Y-57638291D01*
X103834188Y-57608345D01*
X103788758Y-57577990D01*
X103712010Y-57501242D01*
X103680041Y-57453396D01*
X103651709Y-57410995D01*
X103620484Y-57335611D01*
X103608933Y-57314000D01*
X103593388Y-57295059D01*
X103574446Y-57279513D01*
X103552835Y-57267962D01*
X103529386Y-57260849D01*
X103505000Y-57258447D01*
X103480614Y-57260849D01*
X103457165Y-57267962D01*
X103435554Y-57279513D01*
X103416613Y-57295058D01*
X103401067Y-57314000D01*
X103389516Y-57335611D01*
X103358291Y-57410995D01*
X103329959Y-57453396D01*
X103297990Y-57501242D01*
X103221242Y-57577990D01*
X103189816Y-57598988D01*
X103128336Y-57640068D01*
X103109394Y-57655614D01*
X103093849Y-57674556D01*
X103082298Y-57696167D01*
X103075185Y-57719615D01*
X103072783Y-57744002D01*
X102667216Y-57744002D01*
X102667217Y-57744001D01*
X102664815Y-57719615D01*
X102657702Y-57696166D01*
X102646151Y-57674555D01*
X102630606Y-57655613D01*
X102611664Y-57640068D01*
X102550184Y-57598988D01*
X102518758Y-57577990D01*
X102442010Y-57501242D01*
X102410041Y-57453396D01*
X102381709Y-57410995D01*
X102340174Y-57310721D01*
X102319000Y-57204270D01*
X102319000Y-57095730D01*
X102340174Y-56989279D01*
X102381709Y-56889005D01*
X102442009Y-56798760D01*
X102442010Y-56798758D01*
X102518758Y-56722010D01*
X102609004Y-56661710D01*
X102609005Y-56661709D01*
X102684389Y-56630484D01*
X102706000Y-56618933D01*
X102724941Y-56603388D01*
X102740487Y-56584446D01*
X102752038Y-56562835D01*
X102759151Y-56539386D01*
X102761553Y-56515000D01*
X102978447Y-56515000D01*
X102980849Y-56539386D01*
X102987962Y-56562835D01*
X102999513Y-56584446D01*
X103015058Y-56603387D01*
X103034000Y-56618933D01*
X103055611Y-56630484D01*
X103130995Y-56661709D01*
X103130996Y-56661710D01*
X103221242Y-56722010D01*
X103297990Y-56798758D01*
X103297991Y-56798760D01*
X103358291Y-56889005D01*
X103389516Y-56964389D01*
X103401067Y-56986000D01*
X103416612Y-57004941D01*
X103435554Y-57020487D01*
X103457165Y-57032038D01*
X103480614Y-57039151D01*
X103505000Y-57041553D01*
X103529386Y-57039151D01*
X103552835Y-57032038D01*
X103574446Y-57020487D01*
X103593387Y-57004942D01*
X103608933Y-56986000D01*
X103620484Y-56964389D01*
X103651709Y-56889005D01*
X103712009Y-56798760D01*
X103712010Y-56798758D01*
X103788758Y-56722010D01*
X103879004Y-56661710D01*
X103879005Y-56661709D01*
X103954389Y-56630484D01*
X103976000Y-56618933D01*
X103994941Y-56603388D01*
X104010487Y-56584446D01*
X104022038Y-56562835D01*
X104029151Y-56539386D01*
X104031553Y-56515000D01*
X104029151Y-56490614D01*
X104022038Y-56467165D01*
X104010487Y-56445554D01*
X103994942Y-56426613D01*
X103976000Y-56411067D01*
X103954389Y-56399516D01*
X103879005Y-56368291D01*
X103834188Y-56338345D01*
X103788758Y-56307990D01*
X103712010Y-56231242D01*
X103651710Y-56140996D01*
X103651709Y-56140995D01*
X103620484Y-56065611D01*
X103608933Y-56044000D01*
X103593388Y-56025059D01*
X103574446Y-56009513D01*
X103552835Y-55997962D01*
X103529386Y-55990849D01*
X103505000Y-55988447D01*
X103480614Y-55990849D01*
X103457165Y-55997962D01*
X103435554Y-56009513D01*
X103416613Y-56025058D01*
X103401067Y-56044000D01*
X103389516Y-56065611D01*
X103358291Y-56140995D01*
X103358290Y-56140996D01*
X103297990Y-56231242D01*
X103221242Y-56307990D01*
X103175812Y-56338345D01*
X103130995Y-56368291D01*
X103055611Y-56399516D01*
X103034000Y-56411067D01*
X103015059Y-56426612D01*
X102999513Y-56445554D01*
X102987962Y-56467165D01*
X102980849Y-56490614D01*
X102978447Y-56515000D01*
X102761553Y-56515000D01*
X102759151Y-56490614D01*
X102752038Y-56467165D01*
X102740487Y-56445554D01*
X102724942Y-56426613D01*
X102706000Y-56411067D01*
X102684389Y-56399516D01*
X102609005Y-56368291D01*
X102564188Y-56338345D01*
X102518758Y-56307990D01*
X102442010Y-56231242D01*
X102381710Y-56140996D01*
X102381709Y-56140995D01*
X102340174Y-56040721D01*
X102319000Y-55934270D01*
X102319000Y-55825730D01*
X102340174Y-55719279D01*
X102381709Y-55619005D01*
X102442009Y-55528760D01*
X102442010Y-55528758D01*
X102518758Y-55452010D01*
X102564188Y-55421655D01*
X102609005Y-55391709D01*
X102684389Y-55360484D01*
X102706000Y-55348933D01*
X102724941Y-55333388D01*
X102740487Y-55314446D01*
X102752038Y-55292835D01*
X102759151Y-55269386D01*
X102761553Y-55245000D01*
X102978447Y-55245000D01*
X102980849Y-55269386D01*
X102987962Y-55292835D01*
X102999513Y-55314446D01*
X103015058Y-55333387D01*
X103034000Y-55348933D01*
X103055611Y-55360484D01*
X103130995Y-55391709D01*
X103175812Y-55421655D01*
X103221242Y-55452010D01*
X103297990Y-55528758D01*
X103297991Y-55528760D01*
X103358291Y-55619005D01*
X103389516Y-55694389D01*
X103401067Y-55716000D01*
X103416612Y-55734941D01*
X103435554Y-55750487D01*
X103457165Y-55762038D01*
X103480614Y-55769151D01*
X103505000Y-55771553D01*
X103529386Y-55769151D01*
X103552835Y-55762038D01*
X103574446Y-55750487D01*
X103593387Y-55734942D01*
X103608933Y-55716000D01*
X103620484Y-55694389D01*
X103651709Y-55619005D01*
X103712009Y-55528760D01*
X103712010Y-55528758D01*
X103788758Y-55452010D01*
X103834188Y-55421655D01*
X103879005Y-55391709D01*
X103954389Y-55360484D01*
X103976000Y-55348933D01*
X103994941Y-55333388D01*
X104010487Y-55314446D01*
X104022038Y-55292835D01*
X104029151Y-55269386D01*
X104031553Y-55245000D01*
X104029151Y-55220614D01*
X104022038Y-55197165D01*
X104010487Y-55175554D01*
X103994942Y-55156613D01*
X103976000Y-55141067D01*
X103954389Y-55129516D01*
X103879005Y-55098291D01*
X103834188Y-55068345D01*
X103788758Y-55037990D01*
X103712010Y-54961242D01*
X103652923Y-54872812D01*
X103651709Y-54870995D01*
X103620484Y-54795611D01*
X103608933Y-54774000D01*
X103593388Y-54755059D01*
X103574446Y-54739513D01*
X103552835Y-54727962D01*
X103529386Y-54720849D01*
X103505000Y-54718447D01*
X103480614Y-54720849D01*
X103457165Y-54727962D01*
X103435554Y-54739513D01*
X103416613Y-54755058D01*
X103401067Y-54774000D01*
X103389516Y-54795611D01*
X103358291Y-54870995D01*
X103357077Y-54872812D01*
X103297990Y-54961242D01*
X103221242Y-55037990D01*
X103175812Y-55068345D01*
X103130995Y-55098291D01*
X103055611Y-55129516D01*
X103034000Y-55141067D01*
X103015059Y-55156612D01*
X102999513Y-55175554D01*
X102987962Y-55197165D01*
X102980849Y-55220614D01*
X102978447Y-55245000D01*
X102761553Y-55245000D01*
X102759151Y-55220614D01*
X102752038Y-55197165D01*
X102740487Y-55175554D01*
X102724942Y-55156613D01*
X102706000Y-55141067D01*
X102684389Y-55129516D01*
X102609005Y-55098291D01*
X102564188Y-55068345D01*
X102518758Y-55037990D01*
X102442010Y-54961242D01*
X102382923Y-54872812D01*
X102381709Y-54870995D01*
X102340174Y-54770721D01*
X102319000Y-54664270D01*
X102319000Y-54555730D01*
X102340174Y-54449279D01*
X102381709Y-54349005D01*
X102442009Y-54258760D01*
X102442010Y-54258758D01*
X102518758Y-54182010D01*
X102609004Y-54121710D01*
X102609005Y-54121709D01*
X102684389Y-54090484D01*
X102706000Y-54078933D01*
X102724941Y-54063388D01*
X102740487Y-54044446D01*
X102752038Y-54022835D01*
X102759151Y-53999386D01*
X102761553Y-53975000D01*
X102978447Y-53975000D01*
X102980849Y-53999386D01*
X102987962Y-54022835D01*
X102999513Y-54044446D01*
X103015058Y-54063387D01*
X103034000Y-54078933D01*
X103055611Y-54090484D01*
X103130995Y-54121709D01*
X103130996Y-54121710D01*
X103221242Y-54182010D01*
X103297990Y-54258758D01*
X103297991Y-54258760D01*
X103358291Y-54349005D01*
X103389516Y-54424389D01*
X103401067Y-54446000D01*
X103416612Y-54464941D01*
X103435554Y-54480487D01*
X103457165Y-54492038D01*
X103480614Y-54499151D01*
X103505000Y-54501553D01*
X103529386Y-54499151D01*
X103552835Y-54492038D01*
X103574446Y-54480487D01*
X103593387Y-54464942D01*
X103608933Y-54446000D01*
X103620484Y-54424389D01*
X103651709Y-54349005D01*
X103712009Y-54258760D01*
X103712010Y-54258758D01*
X103788758Y-54182010D01*
X103879004Y-54121710D01*
X103879005Y-54121709D01*
X103954389Y-54090484D01*
X103976000Y-54078933D01*
X103994941Y-54063388D01*
X104010487Y-54044446D01*
X104022038Y-54022835D01*
X104029151Y-53999386D01*
X104031553Y-53975000D01*
X104029151Y-53950614D01*
X104022038Y-53927165D01*
X104010487Y-53905554D01*
X103994942Y-53886613D01*
X103976000Y-53871067D01*
X103954389Y-53859516D01*
X103879005Y-53828291D01*
X103834188Y-53798345D01*
X103788758Y-53767990D01*
X103712010Y-53691242D01*
X103651710Y-53600996D01*
X103651709Y-53600995D01*
X103620484Y-53525611D01*
X103608933Y-53504000D01*
X103593388Y-53485059D01*
X103574446Y-53469513D01*
X103552835Y-53457962D01*
X103529386Y-53450849D01*
X103505000Y-53448447D01*
X103480614Y-53450849D01*
X103457165Y-53457962D01*
X103435554Y-53469513D01*
X103416613Y-53485058D01*
X103401067Y-53504000D01*
X103389516Y-53525611D01*
X103358291Y-53600995D01*
X103358290Y-53600996D01*
X103297990Y-53691242D01*
X103221242Y-53767990D01*
X103175812Y-53798345D01*
X103130995Y-53828291D01*
X103055611Y-53859516D01*
X103034000Y-53871067D01*
X103015059Y-53886612D01*
X102999513Y-53905554D01*
X102987962Y-53927165D01*
X102980849Y-53950614D01*
X102978447Y-53975000D01*
X102761553Y-53975000D01*
X102759151Y-53950614D01*
X102752038Y-53927165D01*
X102740487Y-53905554D01*
X102724942Y-53886613D01*
X102706000Y-53871067D01*
X102684389Y-53859516D01*
X102609005Y-53828291D01*
X102564188Y-53798345D01*
X102518758Y-53767990D01*
X102442010Y-53691242D01*
X102381710Y-53600996D01*
X102381709Y-53600995D01*
X102340174Y-53500721D01*
X102319000Y-53394270D01*
X102319000Y-53285730D01*
X102340174Y-53179279D01*
X102381709Y-53079005D01*
X102442009Y-52988760D01*
X102442010Y-52988758D01*
X102518758Y-52912010D01*
X102609004Y-52851710D01*
X102609005Y-52851709D01*
X102709279Y-52810174D01*
X102815730Y-52789000D01*
X102924270Y-52789000D01*
X103030721Y-52810174D01*
G37*
G36*
X95363512Y-56253927D02*
G01*
X95512812Y-56283624D01*
X95676784Y-56351544D01*
X95824354Y-56450147D01*
X95949853Y-56575646D01*
X96048456Y-56723216D01*
X96116376Y-56887188D01*
X96151000Y-57061259D01*
X96151000Y-57238741D01*
X96116376Y-57412812D01*
X96048456Y-57576784D01*
X95949853Y-57724354D01*
X95824354Y-57849853D01*
X95676784Y-57948456D01*
X95512812Y-58016376D01*
X95363512Y-58046073D01*
X95338742Y-58051000D01*
X95161258Y-58051000D01*
X95136488Y-58046073D01*
X94987188Y-58016376D01*
X94823216Y-57948456D01*
X94675646Y-57849853D01*
X94550147Y-57724354D01*
X94451544Y-57576784D01*
X94383624Y-57412812D01*
X94349000Y-57238741D01*
X94349000Y-57061259D01*
X94383624Y-56887188D01*
X94451544Y-56723216D01*
X94550147Y-56575646D01*
X94675646Y-56450147D01*
X94823216Y-56351544D01*
X94987188Y-56283624D01*
X95136488Y-56253927D01*
X95161258Y-56249000D01*
X95338742Y-56249000D01*
X95363512Y-56253927D01*
G37*
G36*
X91071000Y-58051000D02*
G01*
X89269000Y-58051000D01*
X89269000Y-56249000D01*
X91071000Y-56249000D01*
X91071000Y-58051000D01*
G37*
G36*
X92823512Y-56253927D02*
G01*
X92972812Y-56283624D01*
X93136784Y-56351544D01*
X93284354Y-56450147D01*
X93409853Y-56575646D01*
X93508456Y-56723216D01*
X93576376Y-56887188D01*
X93611000Y-57061259D01*
X93611000Y-57238741D01*
X93576376Y-57412812D01*
X93508456Y-57576784D01*
X93409853Y-57724354D01*
X93284354Y-57849853D01*
X93136784Y-57948456D01*
X92972812Y-58016376D01*
X92823512Y-58046073D01*
X92798742Y-58051000D01*
X92621258Y-58051000D01*
X92596488Y-58046073D01*
X92447188Y-58016376D01*
X92283216Y-57948456D01*
X92135646Y-57849853D01*
X92010147Y-57724354D01*
X91911544Y-57576784D01*
X91843624Y-57412812D01*
X91809000Y-57238741D01*
X91809000Y-57061259D01*
X91843624Y-56887188D01*
X91911544Y-56723216D01*
X92010147Y-56575646D01*
X92135646Y-56450147D01*
X92283216Y-56351544D01*
X92447188Y-56283624D01*
X92596488Y-56253927D01*
X92621258Y-56249000D01*
X92798742Y-56249000D01*
X92823512Y-56253927D01*
G37*
G36*
X97903512Y-56253927D02*
G01*
X98052812Y-56283624D01*
X98216784Y-56351544D01*
X98364354Y-56450147D01*
X98489853Y-56575646D01*
X98588456Y-56723216D01*
X98656376Y-56887188D01*
X98691000Y-57061259D01*
X98691000Y-57238741D01*
X98656376Y-57412812D01*
X98588456Y-57576784D01*
X98489853Y-57724354D01*
X98364354Y-57849853D01*
X98216784Y-57948456D01*
X98052812Y-58016376D01*
X97903512Y-58046073D01*
X97878742Y-58051000D01*
X97701258Y-58051000D01*
X97676488Y-58046073D01*
X97527188Y-58016376D01*
X97363216Y-57948456D01*
X97215646Y-57849853D01*
X97090147Y-57724354D01*
X96991544Y-57576784D01*
X96923624Y-57412812D01*
X96889000Y-57238741D01*
X96889000Y-57061259D01*
X96923624Y-56887188D01*
X96991544Y-56723216D01*
X97090147Y-56575646D01*
X97215646Y-56450147D01*
X97363216Y-56351544D01*
X97527188Y-56283624D01*
X97676488Y-56253927D01*
X97701258Y-56249000D01*
X97878742Y-56249000D01*
X97903512Y-56253927D01*
G37*
G36*
X83980721Y-54080174D02*
G01*
X84080995Y-54121709D01*
X84080996Y-54121710D01*
X84171242Y-54182010D01*
X84247990Y-54258758D01*
X84247991Y-54258760D01*
X84308291Y-54349005D01*
X84339516Y-54424389D01*
X84351067Y-54446000D01*
X84366612Y-54464941D01*
X84385554Y-54480487D01*
X84407165Y-54492038D01*
X84430614Y-54499151D01*
X84455000Y-54501553D01*
X84479386Y-54499151D01*
X84502835Y-54492038D01*
X84524446Y-54480487D01*
X84543387Y-54464942D01*
X84558933Y-54446000D01*
X84570484Y-54424389D01*
X84601709Y-54349005D01*
X84662009Y-54258760D01*
X84662010Y-54258758D01*
X84738758Y-54182010D01*
X84829004Y-54121710D01*
X84829005Y-54121709D01*
X84929279Y-54080174D01*
X85035730Y-54059000D01*
X85144270Y-54059000D01*
X85250721Y-54080174D01*
X85350995Y-54121709D01*
X85350996Y-54121710D01*
X85441242Y-54182010D01*
X85517990Y-54258758D01*
X85517991Y-54258760D01*
X85578291Y-54349005D01*
X85619826Y-54449279D01*
X85641000Y-54555730D01*
X85641000Y-54664270D01*
X85619826Y-54770721D01*
X85578291Y-54870995D01*
X85577077Y-54872812D01*
X85517990Y-54961242D01*
X85441242Y-55037990D01*
X85395812Y-55068345D01*
X85350995Y-55098291D01*
X85275611Y-55129516D01*
X85254000Y-55141067D01*
X85235059Y-55156612D01*
X85219513Y-55175554D01*
X85207962Y-55197165D01*
X85200849Y-55220614D01*
X85198447Y-55245000D01*
X85200849Y-55269386D01*
X85207962Y-55292835D01*
X85219513Y-55314446D01*
X85235058Y-55333387D01*
X85254000Y-55348933D01*
X85275611Y-55360484D01*
X85350995Y-55391709D01*
X85395812Y-55421655D01*
X85441242Y-55452010D01*
X85517990Y-55528758D01*
X85517991Y-55528760D01*
X85578291Y-55619005D01*
X85619826Y-55719279D01*
X85641000Y-55825730D01*
X85641000Y-55934270D01*
X85619826Y-56040721D01*
X85578291Y-56140995D01*
X85578290Y-56140996D01*
X85517990Y-56231242D01*
X85441242Y-56307990D01*
X85409816Y-56328988D01*
X85348336Y-56370068D01*
X85329394Y-56385614D01*
X85313849Y-56404556D01*
X85302298Y-56426167D01*
X85295185Y-56449615D01*
X85292783Y-56474002D01*
X85295185Y-56498388D01*
X85302298Y-56521837D01*
X85313849Y-56543447D01*
X85329395Y-56562389D01*
X85348337Y-56577934D01*
X85369948Y-56589485D01*
X85393396Y-56596598D01*
X85417782Y-56599000D01*
X85641000Y-56599000D01*
X85641000Y-57701000D01*
X84539000Y-57701000D01*
X84539000Y-57477782D01*
X84536598Y-57453396D01*
X84529485Y-57429947D01*
X84517934Y-57408336D01*
X84502389Y-57389394D01*
X84483447Y-57373849D01*
X84461836Y-57362298D01*
X84438387Y-57355185D01*
X84414001Y-57352783D01*
X84389615Y-57355185D01*
X84366166Y-57362298D01*
X84344555Y-57373849D01*
X84325613Y-57389394D01*
X84310068Y-57408336D01*
X84268988Y-57469816D01*
X84247990Y-57501242D01*
X84171242Y-57577990D01*
X84125812Y-57608345D01*
X84080995Y-57638291D01*
X83980721Y-57679826D01*
X83874270Y-57701000D01*
X83765730Y-57701000D01*
X83659279Y-57679826D01*
X83559005Y-57638291D01*
X83514188Y-57608345D01*
X83468758Y-57577990D01*
X83392010Y-57501242D01*
X83360041Y-57453396D01*
X83331709Y-57410995D01*
X83290174Y-57310721D01*
X83269000Y-57204270D01*
X83269000Y-57095730D01*
X83290174Y-56989279D01*
X83331709Y-56889005D01*
X83392009Y-56798760D01*
X83392010Y-56798758D01*
X83468758Y-56722010D01*
X83559004Y-56661710D01*
X83559005Y-56661709D01*
X83634389Y-56630484D01*
X83656000Y-56618933D01*
X83674941Y-56603388D01*
X83690487Y-56584446D01*
X83702038Y-56562835D01*
X83709151Y-56539386D01*
X83711553Y-56515000D01*
X83928447Y-56515000D01*
X83930849Y-56539386D01*
X83937962Y-56562835D01*
X83949513Y-56584446D01*
X83965058Y-56603387D01*
X83984000Y-56618933D01*
X84005611Y-56630484D01*
X84080995Y-56661709D01*
X84080996Y-56661710D01*
X84171242Y-56722010D01*
X84247990Y-56798758D01*
X84247991Y-56798760D01*
X84310068Y-56891664D01*
X84325614Y-56910606D01*
X84344556Y-56926151D01*
X84366167Y-56937702D01*
X84389615Y-56944815D01*
X84414002Y-56947217D01*
X84438388Y-56944815D01*
X84461837Y-56937702D01*
X84483447Y-56926151D01*
X84502389Y-56910605D01*
X84517934Y-56891663D01*
X84529485Y-56870052D01*
X84536598Y-56846604D01*
X84539000Y-56822218D01*
X84539000Y-56599000D01*
X84762218Y-56599000D01*
X84786604Y-56596598D01*
X84810053Y-56589485D01*
X84831664Y-56577934D01*
X84850606Y-56562389D01*
X84866151Y-56543447D01*
X84877702Y-56521836D01*
X84884815Y-56498387D01*
X84887217Y-56474001D01*
X84884815Y-56449615D01*
X84877702Y-56426166D01*
X84866151Y-56404555D01*
X84850606Y-56385613D01*
X84831664Y-56370068D01*
X84770184Y-56328988D01*
X84738758Y-56307990D01*
X84662010Y-56231242D01*
X84601710Y-56140996D01*
X84601709Y-56140995D01*
X84570484Y-56065611D01*
X84558933Y-56044000D01*
X84543388Y-56025059D01*
X84524446Y-56009513D01*
X84502835Y-55997962D01*
X84479386Y-55990849D01*
X84455000Y-55988447D01*
X84430614Y-55990849D01*
X84407165Y-55997962D01*
X84385554Y-56009513D01*
X84366613Y-56025058D01*
X84351067Y-56044000D01*
X84339516Y-56065611D01*
X84308291Y-56140995D01*
X84308290Y-56140996D01*
X84247990Y-56231242D01*
X84171242Y-56307990D01*
X84125812Y-56338345D01*
X84080995Y-56368291D01*
X84005611Y-56399516D01*
X83984000Y-56411067D01*
X83965059Y-56426612D01*
X83949513Y-56445554D01*
X83937962Y-56467165D01*
X83930849Y-56490614D01*
X83928447Y-56515000D01*
X83711553Y-56515000D01*
X83709151Y-56490614D01*
X83702038Y-56467165D01*
X83690487Y-56445554D01*
X83674942Y-56426613D01*
X83656000Y-56411067D01*
X83634389Y-56399516D01*
X83559005Y-56368291D01*
X83514188Y-56338345D01*
X83468758Y-56307990D01*
X83392010Y-56231242D01*
X83331710Y-56140996D01*
X83331709Y-56140995D01*
X83290174Y-56040721D01*
X83269000Y-55934270D01*
X83269000Y-55825730D01*
X83290174Y-55719279D01*
X83331709Y-55619005D01*
X83392009Y-55528760D01*
X83392010Y-55528758D01*
X83468758Y-55452010D01*
X83514188Y-55421655D01*
X83559005Y-55391709D01*
X83634389Y-55360484D01*
X83656000Y-55348933D01*
X83674941Y-55333388D01*
X83690487Y-55314446D01*
X83702038Y-55292835D01*
X83709151Y-55269386D01*
X83711553Y-55245000D01*
X83928447Y-55245000D01*
X83930849Y-55269386D01*
X83937962Y-55292835D01*
X83949513Y-55314446D01*
X83965058Y-55333387D01*
X83984000Y-55348933D01*
X84005611Y-55360484D01*
X84080995Y-55391709D01*
X84125812Y-55421655D01*
X84171242Y-55452010D01*
X84247990Y-55528758D01*
X84247991Y-55528760D01*
X84308291Y-55619005D01*
X84339516Y-55694389D01*
X84351067Y-55716000D01*
X84366612Y-55734941D01*
X84385554Y-55750487D01*
X84407165Y-55762038D01*
X84430614Y-55769151D01*
X84455000Y-55771553D01*
X84479386Y-55769151D01*
X84502835Y-55762038D01*
X84524446Y-55750487D01*
X84543387Y-55734942D01*
X84558933Y-55716000D01*
X84570484Y-55694389D01*
X84601709Y-55619005D01*
X84662009Y-55528760D01*
X84662010Y-55528758D01*
X84738758Y-55452010D01*
X84784188Y-55421655D01*
X84829005Y-55391709D01*
X84904389Y-55360484D01*
X84926000Y-55348933D01*
X84944941Y-55333388D01*
X84960487Y-55314446D01*
X84972038Y-55292835D01*
X84979151Y-55269386D01*
X84981553Y-55245000D01*
X84979151Y-55220614D01*
X84972038Y-55197165D01*
X84960487Y-55175554D01*
X84944942Y-55156613D01*
X84926000Y-55141067D01*
X84904389Y-55129516D01*
X84829005Y-55098291D01*
X84784188Y-55068345D01*
X84738758Y-55037990D01*
X84662010Y-54961242D01*
X84602923Y-54872812D01*
X84601709Y-54870995D01*
X84570484Y-54795611D01*
X84558933Y-54774000D01*
X84543388Y-54755059D01*
X84524446Y-54739513D01*
X84502835Y-54727962D01*
X84479386Y-54720849D01*
X84455000Y-54718447D01*
X84430614Y-54720849D01*
X84407165Y-54727962D01*
X84385554Y-54739513D01*
X84366613Y-54755058D01*
X84351067Y-54774000D01*
X84339516Y-54795611D01*
X84308291Y-54870995D01*
X84307077Y-54872812D01*
X84247990Y-54961242D01*
X84171242Y-55037990D01*
X84125812Y-55068345D01*
X84080995Y-55098291D01*
X84005611Y-55129516D01*
X83984000Y-55141067D01*
X83965059Y-55156612D01*
X83949513Y-55175554D01*
X83937962Y-55197165D01*
X83930849Y-55220614D01*
X83928447Y-55245000D01*
X83711553Y-55245000D01*
X83709151Y-55220614D01*
X83702038Y-55197165D01*
X83690487Y-55175554D01*
X83674942Y-55156613D01*
X83656000Y-55141067D01*
X83634389Y-55129516D01*
X83559005Y-55098291D01*
X83514188Y-55068345D01*
X83468758Y-55037990D01*
X83392010Y-54961242D01*
X83332923Y-54872812D01*
X83331709Y-54870995D01*
X83290174Y-54770721D01*
X83269000Y-54664270D01*
X83269000Y-54555730D01*
X83290174Y-54449279D01*
X83331709Y-54349005D01*
X83392009Y-54258760D01*
X83392010Y-54258758D01*
X83468758Y-54182010D01*
X83559004Y-54121710D01*
X83559005Y-54121709D01*
X83659279Y-54080174D01*
X83765730Y-54059000D01*
X83874270Y-54059000D01*
X83980721Y-54080174D01*
G37*
G36*
X95363512Y-53713927D02*
G01*
X95512812Y-53743624D01*
X95676784Y-53811544D01*
X95824354Y-53910147D01*
X95949853Y-54035646D01*
X96048456Y-54183216D01*
X96116376Y-54347188D01*
X96151000Y-54521259D01*
X96151000Y-54698741D01*
X96116376Y-54872812D01*
X96048456Y-55036784D01*
X95949853Y-55184354D01*
X95824354Y-55309853D01*
X95676784Y-55408456D01*
X95512812Y-55476376D01*
X95363512Y-55506073D01*
X95338742Y-55511000D01*
X95161258Y-55511000D01*
X95136488Y-55506073D01*
X94987188Y-55476376D01*
X94823216Y-55408456D01*
X94675646Y-55309853D01*
X94550147Y-55184354D01*
X94451544Y-55036784D01*
X94383624Y-54872812D01*
X94349000Y-54698741D01*
X94349000Y-54521259D01*
X94383624Y-54347188D01*
X94451544Y-54183216D01*
X94550147Y-54035646D01*
X94675646Y-53910147D01*
X94823216Y-53811544D01*
X94987188Y-53743624D01*
X95136488Y-53713927D01*
X95161258Y-53709000D01*
X95338742Y-53709000D01*
X95363512Y-53713927D01*
G37*
G36*
X92823512Y-53713927D02*
G01*
X92972812Y-53743624D01*
X93136784Y-53811544D01*
X93284354Y-53910147D01*
X93409853Y-54035646D01*
X93508456Y-54183216D01*
X93576376Y-54347188D01*
X93611000Y-54521259D01*
X93611000Y-54698741D01*
X93576376Y-54872812D01*
X93508456Y-55036784D01*
X93409853Y-55184354D01*
X93284354Y-55309853D01*
X93136784Y-55408456D01*
X92972812Y-55476376D01*
X92823512Y-55506073D01*
X92798742Y-55511000D01*
X92621258Y-55511000D01*
X92596488Y-55506073D01*
X92447188Y-55476376D01*
X92283216Y-55408456D01*
X92135646Y-55309853D01*
X92010147Y-55184354D01*
X91911544Y-55036784D01*
X91843624Y-54872812D01*
X91809000Y-54698741D01*
X91809000Y-54521259D01*
X91843624Y-54347188D01*
X91911544Y-54183216D01*
X92010147Y-54035646D01*
X92135646Y-53910147D01*
X92283216Y-53811544D01*
X92447188Y-53743624D01*
X92596488Y-53713927D01*
X92621258Y-53709000D01*
X92798742Y-53709000D01*
X92823512Y-53713927D01*
G37*
G36*
X90283512Y-53713927D02*
G01*
X90432812Y-53743624D01*
X90596784Y-53811544D01*
X90744354Y-53910147D01*
X90869853Y-54035646D01*
X90968456Y-54183216D01*
X91036376Y-54347188D01*
X91071000Y-54521259D01*
X91071000Y-54698741D01*
X91036376Y-54872812D01*
X90968456Y-55036784D01*
X90869853Y-55184354D01*
X90744354Y-55309853D01*
X90596784Y-55408456D01*
X90432812Y-55476376D01*
X90283512Y-55506073D01*
X90258742Y-55511000D01*
X90081258Y-55511000D01*
X90056488Y-55506073D01*
X89907188Y-55476376D01*
X89743216Y-55408456D01*
X89595646Y-55309853D01*
X89470147Y-55184354D01*
X89371544Y-55036784D01*
X89303624Y-54872812D01*
X89269000Y-54698741D01*
X89269000Y-54521259D01*
X89303624Y-54347188D01*
X89371544Y-54183216D01*
X89470147Y-54035646D01*
X89595646Y-53910147D01*
X89743216Y-53811544D01*
X89907188Y-53743624D01*
X90056488Y-53713927D01*
X90081258Y-53709000D01*
X90258742Y-53709000D01*
X90283512Y-53713927D01*
G37*
G36*
X97903512Y-53713927D02*
G01*
X98052812Y-53743624D01*
X98216784Y-53811544D01*
X98364354Y-53910147D01*
X98489853Y-54035646D01*
X98588456Y-54183216D01*
X98656376Y-54347188D01*
X98691000Y-54521259D01*
X98691000Y-54698741D01*
X98656376Y-54872812D01*
X98588456Y-55036784D01*
X98489853Y-55184354D01*
X98364354Y-55309853D01*
X98216784Y-55408456D01*
X98052812Y-55476376D01*
X97903512Y-55506073D01*
X97878742Y-55511000D01*
X97701258Y-55511000D01*
X97676488Y-55506073D01*
X97527188Y-55476376D01*
X97363216Y-55408456D01*
X97215646Y-55309853D01*
X97090147Y-55184354D01*
X96991544Y-55036784D01*
X96923624Y-54872812D01*
X96889000Y-54698741D01*
X96889000Y-54521259D01*
X96923624Y-54347188D01*
X96991544Y-54183216D01*
X97090147Y-54035646D01*
X97215646Y-53910147D01*
X97363216Y-53811544D01*
X97527188Y-53743624D01*
X97676488Y-53713927D01*
X97701258Y-53709000D01*
X97878742Y-53709000D01*
X97903512Y-53713927D01*
G37*
M02*
