G04 #@! TF.GenerationSoftware,KiCad,Pcbnew,(5.1.5)-3*
G04 #@! TF.CreationDate,2020-03-30T22:37:45+02:00*
G04 #@! TF.ProjectId,Zigbee-dongle-adapter,5a696762-6565-42d6-946f-6e676c652d61,rev?*
G04 #@! TF.SameCoordinates,Original*
G04 #@! TF.FileFunction,Copper,L1,Top*
G04 #@! TF.FilePolarity,Positive*
%FSLAX46Y46*%
G04 Gerber Fmt 4.6, Leading zero omitted, Abs format (unit mm)*
G04 Created by KiCad (PCBNEW (5.1.5)-3) date 2020-03-30 22:37:45*
%MOMM*%
%LPD*%
G04 APERTURE LIST*
%ADD10C,0.050000*%
%ADD11O,1.000000X1.000000*%
%ADD12R,1.000000X1.000000*%
%ADD13R,1.700000X1.700000*%
%ADD14O,1.700000X1.700000*%
%ADD15C,0.800000*%
%ADD16C,0.250000*%
G04 APERTURE END LIST*
D10*
X81280000Y-60960000D02*
X81280000Y-50800000D01*
X106680000Y-60960000D02*
X81280000Y-60960000D01*
X106680000Y-50800000D02*
X106680000Y-60960000D01*
X81280000Y-50800000D02*
X106680000Y-50800000D01*
D11*
X83820000Y-54610000D03*
X85090000Y-54610000D03*
X83820000Y-55880000D03*
X85090000Y-55880000D03*
X83820000Y-57150000D03*
D12*
X85090000Y-57150000D03*
X102870000Y-58420000D03*
D11*
X104140000Y-58420000D03*
X102870000Y-57150000D03*
X104140000Y-57150000D03*
X102870000Y-55880000D03*
X104140000Y-55880000D03*
X102870000Y-54610000D03*
X104140000Y-54610000D03*
X102870000Y-53340000D03*
X104140000Y-53340000D03*
D13*
X90170000Y-57150000D03*
D14*
X90170000Y-54610000D03*
X92710000Y-57150000D03*
X92710000Y-54610000D03*
X95250000Y-57150000D03*
X95250000Y-54610000D03*
X97790000Y-57150000D03*
X97790000Y-54610000D03*
D15*
X100330000Y-53340000D03*
D16*
X91165001Y-59245001D02*
X90170000Y-58250000D01*
X104022105Y-59245001D02*
X91165001Y-59245001D01*
X104140000Y-59127106D02*
X104022105Y-59245001D01*
X90170000Y-58250000D02*
X90170000Y-57150000D01*
X104140000Y-58420000D02*
X104140000Y-59127106D01*
X92265001Y-52514999D02*
X91019999Y-53760001D01*
X103314999Y-52514999D02*
X92265001Y-52514999D01*
X91019999Y-53760001D02*
X90170000Y-54610000D01*
X104140000Y-53340000D02*
X103314999Y-52514999D01*
X84669999Y-53760001D02*
X84319999Y-54110001D01*
X84319999Y-54110001D02*
X83820000Y-54610000D01*
X89320001Y-53760001D02*
X84669999Y-53760001D01*
X90170000Y-54610000D02*
X89320001Y-53760001D01*
X94400001Y-56300001D02*
X95250000Y-57150000D01*
X94074999Y-55974999D02*
X94400001Y-56300001D01*
X89059999Y-55974999D02*
X94074999Y-55974999D01*
X90430009Y-59695011D02*
X88994999Y-58260001D01*
X88994999Y-58260001D02*
X88994999Y-56039999D01*
X104208505Y-59695011D02*
X90430009Y-59695011D01*
X88994999Y-56039999D02*
X89059999Y-55974999D01*
X104965001Y-58938515D02*
X104208505Y-59695011D01*
X104965001Y-56705001D02*
X104965001Y-58938515D01*
X104140000Y-55880000D02*
X104965001Y-56705001D01*
X97790000Y-57150000D02*
X100330000Y-54610000D01*
X100330000Y-54610000D02*
X100330000Y-53340000D01*
M02*
