G04 #@! TF.GenerationSoftware,KiCad,Pcbnew,(5.1.5)-3*
G04 #@! TF.CreationDate,2020-03-30T22:37:45+02:00*
G04 #@! TF.ProjectId,Zigbee-dongle-adapter,5a696762-6565-42d6-946f-6e676c652d61,rev?*
G04 #@! TF.SameCoordinates,Original*
G04 #@! TF.FileFunction,Copper,L2,Bot*
G04 #@! TF.FilePolarity,Positive*
%FSLAX46Y46*%
G04 Gerber Fmt 4.6, Leading zero omitted, Abs format (unit mm)*
G04 Created by KiCad (PCBNEW (5.1.5)-3) date 2020-03-30 22:37:45*
%MOMM*%
%LPD*%
G04 APERTURE LIST*
%ADD10C,0.050000*%
%ADD11O,1.000000X1.000000*%
%ADD12R,1.000000X1.000000*%
%ADD13R,1.700000X1.700000*%
%ADD14O,1.700000X1.700000*%
%ADD15C,0.800000*%
%ADD16C,0.250000*%
%ADD17C,0.254000*%
G04 APERTURE END LIST*
D10*
X81280000Y-60960000D02*
X81280000Y-50800000D01*
X106680000Y-60960000D02*
X81280000Y-60960000D01*
X106680000Y-50800000D02*
X106680000Y-60960000D01*
X81280000Y-50800000D02*
X106680000Y-50800000D01*
D11*
X83820000Y-54610000D03*
X85090000Y-54610000D03*
X83820000Y-55880000D03*
X85090000Y-55880000D03*
X83820000Y-57150000D03*
D12*
X85090000Y-57150000D03*
X102870000Y-58420000D03*
D11*
X104140000Y-58420000D03*
X102870000Y-57150000D03*
X104140000Y-57150000D03*
X102870000Y-55880000D03*
X104140000Y-55880000D03*
X102870000Y-54610000D03*
X104140000Y-54610000D03*
X102870000Y-53340000D03*
X104140000Y-53340000D03*
D13*
X90170000Y-57150000D03*
D14*
X90170000Y-54610000D03*
X92710000Y-57150000D03*
X92710000Y-54610000D03*
X95250000Y-57150000D03*
X95250000Y-54610000D03*
X97790000Y-57150000D03*
X97790000Y-54610000D03*
D15*
X100330000Y-53340000D03*
D16*
X85840000Y-57150000D02*
X85090000Y-57150000D01*
X87204999Y-55785001D02*
X85840000Y-57150000D01*
X91534999Y-55785001D02*
X87204999Y-55785001D01*
X92710000Y-54610000D02*
X91534999Y-55785001D01*
X88244999Y-57975001D02*
X83937895Y-57975001D01*
X83820000Y-57857106D02*
X83820000Y-57150000D01*
X83937895Y-57975001D02*
X83820000Y-57857106D01*
X89070000Y-57150000D02*
X88244999Y-57975001D01*
X90170000Y-57150000D02*
X89070000Y-57150000D01*
X102370001Y-55380001D02*
X102870000Y-55880000D01*
X102044999Y-55054999D02*
X102370001Y-55380001D01*
X102044999Y-54165001D02*
X102044999Y-55054999D01*
X102870000Y-53340000D02*
X102044999Y-54165001D01*
X102870000Y-55880000D02*
X102870000Y-57150000D01*
X87535001Y-53434999D02*
X85589999Y-55380001D01*
X94074999Y-53434999D02*
X87535001Y-53434999D01*
X85589999Y-55380001D02*
X85090000Y-55880000D01*
X95250000Y-54610000D02*
X94074999Y-53434999D01*
X102162894Y-55880000D02*
X102870000Y-55880000D01*
X96520000Y-53340000D02*
X98259002Y-53340000D01*
X95250000Y-54610000D02*
X96520000Y-53340000D01*
X100874999Y-55880000D02*
X102162894Y-55880000D01*
X98259002Y-53340000D02*
X99529002Y-54610000D01*
X99529002Y-54610000D02*
X99604999Y-54610000D01*
X99604999Y-54610000D02*
X100874999Y-55880000D01*
X94805001Y-59245001D02*
X93559999Y-57999999D01*
X104536001Y-59245001D02*
X94805001Y-59245001D01*
X104965001Y-58816001D02*
X104536001Y-59245001D01*
X104965001Y-57975001D02*
X104965001Y-58816001D01*
X93559999Y-57999999D02*
X92710000Y-57150000D01*
X104140000Y-57150000D02*
X104965001Y-57975001D01*
X83320001Y-56379999D02*
X83820000Y-55880000D01*
X82994999Y-57668515D02*
X82994999Y-56705001D01*
X82994999Y-56705001D02*
X83320001Y-56379999D01*
X83751494Y-58425010D02*
X82994999Y-57668515D01*
X91434990Y-58425010D02*
X83751494Y-58425010D01*
X92710000Y-57150000D02*
X91434990Y-58425010D01*
X104965001Y-53784999D02*
X104965001Y-52943999D01*
X104140000Y-54610000D02*
X104965001Y-53784999D01*
X104536001Y-52514999D02*
X101155001Y-52514999D01*
X100729999Y-52940001D02*
X100330000Y-53340000D01*
X101155001Y-52514999D02*
X100729999Y-52940001D01*
X104965001Y-52943999D02*
X104536001Y-52514999D01*
D17*
G36*
X106020001Y-60300000D02*
G01*
X81940000Y-60300000D01*
X81940000Y-56705001D01*
X82231323Y-56705001D01*
X82235000Y-56742333D01*
X82234999Y-57631192D01*
X82231323Y-57668515D01*
X82234999Y-57705837D01*
X82234999Y-57705847D01*
X82245996Y-57817500D01*
X82282448Y-57937668D01*
X82289453Y-57960761D01*
X82360025Y-58092791D01*
X82399870Y-58141341D01*
X82454998Y-58208516D01*
X82484001Y-58232318D01*
X83187699Y-58936018D01*
X83211493Y-58965011D01*
X83240486Y-58988805D01*
X83240490Y-58988809D01*
X83308329Y-59044482D01*
X83327218Y-59059984D01*
X83459247Y-59130556D01*
X83602508Y-59174013D01*
X83714161Y-59185010D01*
X83714170Y-59185010D01*
X83751493Y-59188686D01*
X83788816Y-59185010D01*
X91397668Y-59185010D01*
X91434990Y-59188686D01*
X91472312Y-59185010D01*
X91472323Y-59185010D01*
X91583976Y-59174013D01*
X91727237Y-59130556D01*
X91859266Y-59059984D01*
X91974991Y-58965011D01*
X91998793Y-58936008D01*
X92343592Y-58591210D01*
X92563740Y-58635000D01*
X92856260Y-58635000D01*
X93076408Y-58591209D01*
X94241202Y-59756004D01*
X94265000Y-59785002D01*
X94380725Y-59879975D01*
X94512754Y-59950547D01*
X94656015Y-59994004D01*
X94767668Y-60005001D01*
X94767676Y-60005001D01*
X94805001Y-60008677D01*
X94842326Y-60005001D01*
X104498679Y-60005001D01*
X104536001Y-60008677D01*
X104573323Y-60005001D01*
X104573334Y-60005001D01*
X104684987Y-59994004D01*
X104828248Y-59950547D01*
X104960277Y-59879975D01*
X105076002Y-59785002D01*
X105099805Y-59755998D01*
X105475998Y-59379805D01*
X105505002Y-59356002D01*
X105599975Y-59240277D01*
X105670547Y-59108248D01*
X105714004Y-58964987D01*
X105725001Y-58853334D01*
X105728678Y-58816001D01*
X105725001Y-58778668D01*
X105725001Y-58012334D01*
X105728678Y-57975001D01*
X105714004Y-57826015D01*
X105670547Y-57682754D01*
X105599975Y-57550725D01*
X105528800Y-57463998D01*
X105505002Y-57435000D01*
X105476005Y-57411203D01*
X105275000Y-57210198D01*
X105275000Y-57038212D01*
X105231383Y-56818933D01*
X105145824Y-56612376D01*
X105080759Y-56515000D01*
X105145824Y-56417624D01*
X105231383Y-56211067D01*
X105275000Y-55991788D01*
X105275000Y-55768212D01*
X105231383Y-55548933D01*
X105145824Y-55342376D01*
X105080759Y-55245000D01*
X105145824Y-55147624D01*
X105231383Y-54941067D01*
X105275000Y-54721788D01*
X105275000Y-54549802D01*
X105476005Y-54348797D01*
X105505002Y-54325000D01*
X105599975Y-54209275D01*
X105670547Y-54077246D01*
X105714004Y-53933985D01*
X105725001Y-53822332D01*
X105725001Y-53822331D01*
X105728678Y-53784999D01*
X105725001Y-53747666D01*
X105725001Y-52981332D01*
X105728678Y-52943999D01*
X105714004Y-52795013D01*
X105670547Y-52651752D01*
X105599975Y-52519723D01*
X105596098Y-52514999D01*
X105505002Y-52403998D01*
X105475998Y-52380195D01*
X105099805Y-52004002D01*
X105076002Y-51974998D01*
X104960277Y-51880025D01*
X104828248Y-51809453D01*
X104684987Y-51765996D01*
X104573334Y-51754999D01*
X104573323Y-51754999D01*
X104536001Y-51751323D01*
X104498679Y-51754999D01*
X101192334Y-51754999D01*
X101155001Y-51751322D01*
X101117668Y-51754999D01*
X101006015Y-51765996D01*
X100862754Y-51809453D01*
X100730725Y-51880025D01*
X100615000Y-51974998D01*
X100591197Y-52004002D01*
X100290199Y-52305000D01*
X100228061Y-52305000D01*
X100028102Y-52344774D01*
X99839744Y-52422795D01*
X99670226Y-52536063D01*
X99526063Y-52680226D01*
X99412795Y-52849744D01*
X99334774Y-53038102D01*
X99295000Y-53238061D01*
X99295000Y-53441939D01*
X99334774Y-53641898D01*
X99412795Y-53830256D01*
X99526063Y-53999774D01*
X99670226Y-54143937D01*
X99839744Y-54257205D01*
X100028102Y-54335226D01*
X100228061Y-54375000D01*
X100431939Y-54375000D01*
X100631898Y-54335226D01*
X100820256Y-54257205D01*
X100989774Y-54143937D01*
X101133937Y-53999774D01*
X101247205Y-53830256D01*
X101325226Y-53641898D01*
X101365000Y-53441939D01*
X101365000Y-53379801D01*
X101469802Y-53274999D01*
X103005000Y-53274999D01*
X103005000Y-53451788D01*
X103008026Y-53467000D01*
X102997000Y-53467000D01*
X102997000Y-53478026D01*
X102981788Y-53475000D01*
X102758212Y-53475000D01*
X102743000Y-53478026D01*
X102743000Y-53467000D01*
X101902046Y-53467000D01*
X101775881Y-53641874D01*
X101792554Y-53696864D01*
X101882877Y-53900206D01*
X101932353Y-53970342D01*
X101864176Y-54072376D01*
X101778617Y-54278933D01*
X101735000Y-54498212D01*
X101735000Y-54721788D01*
X101778617Y-54941067D01*
X101864176Y-55147624D01*
X101932353Y-55249658D01*
X101882877Y-55319794D01*
X101792554Y-55523136D01*
X101775881Y-55578126D01*
X101902046Y-55753000D01*
X102743000Y-55753000D01*
X102743000Y-55741974D01*
X102758212Y-55745000D01*
X102981788Y-55745000D01*
X102997000Y-55741974D01*
X102997000Y-55753000D01*
X103008026Y-55753000D01*
X103005000Y-55768212D01*
X103005000Y-55991788D01*
X103008026Y-56007000D01*
X102997000Y-56007000D01*
X102997000Y-57023000D01*
X103008026Y-57023000D01*
X103005000Y-57038212D01*
X103005000Y-57261788D01*
X103008026Y-57277000D01*
X102997000Y-57277000D01*
X102997000Y-57281928D01*
X102743000Y-57281928D01*
X102743000Y-57277000D01*
X101902046Y-57277000D01*
X101775881Y-57451874D01*
X101792554Y-57506864D01*
X101828070Y-57586820D01*
X101780498Y-57675820D01*
X101744188Y-57795518D01*
X101731928Y-57920000D01*
X101731928Y-58485001D01*
X98447514Y-58485001D01*
X98493411Y-58465990D01*
X98736632Y-58303475D01*
X98943475Y-58096632D01*
X99105990Y-57853411D01*
X99217932Y-57583158D01*
X99275000Y-57296260D01*
X99275000Y-57003740D01*
X99217932Y-56716842D01*
X99105990Y-56446589D01*
X98943475Y-56203368D01*
X98921981Y-56181874D01*
X101775881Y-56181874D01*
X101792554Y-56236864D01*
X101882877Y-56440206D01*
X101935639Y-56515000D01*
X101882877Y-56589794D01*
X101792554Y-56793136D01*
X101775881Y-56848126D01*
X101902046Y-57023000D01*
X102743000Y-57023000D01*
X102743000Y-56007000D01*
X101902046Y-56007000D01*
X101775881Y-56181874D01*
X98921981Y-56181874D01*
X98736632Y-55996525D01*
X98562240Y-55880000D01*
X98736632Y-55763475D01*
X98943475Y-55556632D01*
X99105990Y-55313411D01*
X99217932Y-55043158D01*
X99275000Y-54756260D01*
X99275000Y-54463740D01*
X99217932Y-54176842D01*
X99105990Y-53906589D01*
X98943475Y-53663368D01*
X98736632Y-53456525D01*
X98493411Y-53294010D01*
X98223158Y-53182068D01*
X97936260Y-53125000D01*
X97643740Y-53125000D01*
X97356842Y-53182068D01*
X97086589Y-53294010D01*
X96843368Y-53456525D01*
X96636525Y-53663368D01*
X96514805Y-53845534D01*
X96445178Y-53728645D01*
X96250269Y-53512412D01*
X96016920Y-53338359D01*
X95754099Y-53213175D01*
X95606890Y-53168524D01*
X95377000Y-53289845D01*
X95377000Y-54483000D01*
X95397000Y-54483000D01*
X95397000Y-54737000D01*
X95377000Y-54737000D01*
X95377000Y-54757000D01*
X95123000Y-54757000D01*
X95123000Y-54737000D01*
X95103000Y-54737000D01*
X95103000Y-54483000D01*
X95123000Y-54483000D01*
X95123000Y-53289845D01*
X94893110Y-53168524D01*
X94745901Y-53213175D01*
X94483080Y-53338359D01*
X94249731Y-53512412D01*
X94054822Y-53728645D01*
X93985195Y-53845534D01*
X93863475Y-53663368D01*
X93656632Y-53456525D01*
X93413411Y-53294010D01*
X93143158Y-53182068D01*
X92856260Y-53125000D01*
X92563740Y-53125000D01*
X92276842Y-53182068D01*
X92006589Y-53294010D01*
X91763368Y-53456525D01*
X91556525Y-53663368D01*
X91440000Y-53837760D01*
X91323475Y-53663368D01*
X91116632Y-53456525D01*
X90873411Y-53294010D01*
X90603158Y-53182068D01*
X90316260Y-53125000D01*
X90023740Y-53125000D01*
X89736842Y-53182068D01*
X89466589Y-53294010D01*
X89223368Y-53456525D01*
X89016525Y-53663368D01*
X88854010Y-53906589D01*
X88742068Y-54176842D01*
X88685000Y-54463740D01*
X88685000Y-54756260D01*
X88738456Y-55025001D01*
X87242321Y-55025001D01*
X87204998Y-55021325D01*
X87167675Y-55025001D01*
X87167666Y-55025001D01*
X87056013Y-55035998D01*
X86912752Y-55079455D01*
X86780722Y-55150027D01*
X86750957Y-55174455D01*
X86664998Y-55245000D01*
X86641200Y-55273998D01*
X86162201Y-55752998D01*
X86057955Y-55752998D01*
X86184119Y-55578126D01*
X86167446Y-55523136D01*
X86077123Y-55319794D01*
X86027647Y-55249658D01*
X86095824Y-55147624D01*
X86181383Y-54941067D01*
X86225000Y-54721788D01*
X86225000Y-54498212D01*
X86181383Y-54278933D01*
X86095824Y-54072376D01*
X85971612Y-53886480D01*
X85813520Y-53728388D01*
X85627624Y-53604176D01*
X85421067Y-53518617D01*
X85201788Y-53475000D01*
X84978212Y-53475000D01*
X84758933Y-53518617D01*
X84552376Y-53604176D01*
X84455000Y-53669241D01*
X84357624Y-53604176D01*
X84151067Y-53518617D01*
X83931788Y-53475000D01*
X83708212Y-53475000D01*
X83488933Y-53518617D01*
X83282376Y-53604176D01*
X83096480Y-53728388D01*
X82938388Y-53886480D01*
X82814176Y-54072376D01*
X82728617Y-54278933D01*
X82685000Y-54498212D01*
X82685000Y-54721788D01*
X82728617Y-54941067D01*
X82814176Y-55147624D01*
X82879241Y-55245000D01*
X82814176Y-55342376D01*
X82728617Y-55548933D01*
X82685000Y-55768212D01*
X82685000Y-55940199D01*
X82483997Y-56141202D01*
X82454999Y-56165000D01*
X82431201Y-56193998D01*
X82431200Y-56193999D01*
X82360025Y-56280725D01*
X82289453Y-56412755D01*
X82245997Y-56556016D01*
X82231323Y-56705001D01*
X81940000Y-56705001D01*
X81940000Y-51460000D01*
X106020000Y-51460000D01*
X106020001Y-60300000D01*
G37*
X106020001Y-60300000D02*
X81940000Y-60300000D01*
X81940000Y-56705001D01*
X82231323Y-56705001D01*
X82235000Y-56742333D01*
X82234999Y-57631192D01*
X82231323Y-57668515D01*
X82234999Y-57705837D01*
X82234999Y-57705847D01*
X82245996Y-57817500D01*
X82282448Y-57937668D01*
X82289453Y-57960761D01*
X82360025Y-58092791D01*
X82399870Y-58141341D01*
X82454998Y-58208516D01*
X82484001Y-58232318D01*
X83187699Y-58936018D01*
X83211493Y-58965011D01*
X83240486Y-58988805D01*
X83240490Y-58988809D01*
X83308329Y-59044482D01*
X83327218Y-59059984D01*
X83459247Y-59130556D01*
X83602508Y-59174013D01*
X83714161Y-59185010D01*
X83714170Y-59185010D01*
X83751493Y-59188686D01*
X83788816Y-59185010D01*
X91397668Y-59185010D01*
X91434990Y-59188686D01*
X91472312Y-59185010D01*
X91472323Y-59185010D01*
X91583976Y-59174013D01*
X91727237Y-59130556D01*
X91859266Y-59059984D01*
X91974991Y-58965011D01*
X91998793Y-58936008D01*
X92343592Y-58591210D01*
X92563740Y-58635000D01*
X92856260Y-58635000D01*
X93076408Y-58591209D01*
X94241202Y-59756004D01*
X94265000Y-59785002D01*
X94380725Y-59879975D01*
X94512754Y-59950547D01*
X94656015Y-59994004D01*
X94767668Y-60005001D01*
X94767676Y-60005001D01*
X94805001Y-60008677D01*
X94842326Y-60005001D01*
X104498679Y-60005001D01*
X104536001Y-60008677D01*
X104573323Y-60005001D01*
X104573334Y-60005001D01*
X104684987Y-59994004D01*
X104828248Y-59950547D01*
X104960277Y-59879975D01*
X105076002Y-59785002D01*
X105099805Y-59755998D01*
X105475998Y-59379805D01*
X105505002Y-59356002D01*
X105599975Y-59240277D01*
X105670547Y-59108248D01*
X105714004Y-58964987D01*
X105725001Y-58853334D01*
X105728678Y-58816001D01*
X105725001Y-58778668D01*
X105725001Y-58012334D01*
X105728678Y-57975001D01*
X105714004Y-57826015D01*
X105670547Y-57682754D01*
X105599975Y-57550725D01*
X105528800Y-57463998D01*
X105505002Y-57435000D01*
X105476005Y-57411203D01*
X105275000Y-57210198D01*
X105275000Y-57038212D01*
X105231383Y-56818933D01*
X105145824Y-56612376D01*
X105080759Y-56515000D01*
X105145824Y-56417624D01*
X105231383Y-56211067D01*
X105275000Y-55991788D01*
X105275000Y-55768212D01*
X105231383Y-55548933D01*
X105145824Y-55342376D01*
X105080759Y-55245000D01*
X105145824Y-55147624D01*
X105231383Y-54941067D01*
X105275000Y-54721788D01*
X105275000Y-54549802D01*
X105476005Y-54348797D01*
X105505002Y-54325000D01*
X105599975Y-54209275D01*
X105670547Y-54077246D01*
X105714004Y-53933985D01*
X105725001Y-53822332D01*
X105725001Y-53822331D01*
X105728678Y-53784999D01*
X105725001Y-53747666D01*
X105725001Y-52981332D01*
X105728678Y-52943999D01*
X105714004Y-52795013D01*
X105670547Y-52651752D01*
X105599975Y-52519723D01*
X105596098Y-52514999D01*
X105505002Y-52403998D01*
X105475998Y-52380195D01*
X105099805Y-52004002D01*
X105076002Y-51974998D01*
X104960277Y-51880025D01*
X104828248Y-51809453D01*
X104684987Y-51765996D01*
X104573334Y-51754999D01*
X104573323Y-51754999D01*
X104536001Y-51751323D01*
X104498679Y-51754999D01*
X101192334Y-51754999D01*
X101155001Y-51751322D01*
X101117668Y-51754999D01*
X101006015Y-51765996D01*
X100862754Y-51809453D01*
X100730725Y-51880025D01*
X100615000Y-51974998D01*
X100591197Y-52004002D01*
X100290199Y-52305000D01*
X100228061Y-52305000D01*
X100028102Y-52344774D01*
X99839744Y-52422795D01*
X99670226Y-52536063D01*
X99526063Y-52680226D01*
X99412795Y-52849744D01*
X99334774Y-53038102D01*
X99295000Y-53238061D01*
X99295000Y-53441939D01*
X99334774Y-53641898D01*
X99412795Y-53830256D01*
X99526063Y-53999774D01*
X99670226Y-54143937D01*
X99839744Y-54257205D01*
X100028102Y-54335226D01*
X100228061Y-54375000D01*
X100431939Y-54375000D01*
X100631898Y-54335226D01*
X100820256Y-54257205D01*
X100989774Y-54143937D01*
X101133937Y-53999774D01*
X101247205Y-53830256D01*
X101325226Y-53641898D01*
X101365000Y-53441939D01*
X101365000Y-53379801D01*
X101469802Y-53274999D01*
X103005000Y-53274999D01*
X103005000Y-53451788D01*
X103008026Y-53467000D01*
X102997000Y-53467000D01*
X102997000Y-53478026D01*
X102981788Y-53475000D01*
X102758212Y-53475000D01*
X102743000Y-53478026D01*
X102743000Y-53467000D01*
X101902046Y-53467000D01*
X101775881Y-53641874D01*
X101792554Y-53696864D01*
X101882877Y-53900206D01*
X101932353Y-53970342D01*
X101864176Y-54072376D01*
X101778617Y-54278933D01*
X101735000Y-54498212D01*
X101735000Y-54721788D01*
X101778617Y-54941067D01*
X101864176Y-55147624D01*
X101932353Y-55249658D01*
X101882877Y-55319794D01*
X101792554Y-55523136D01*
X101775881Y-55578126D01*
X101902046Y-55753000D01*
X102743000Y-55753000D01*
X102743000Y-55741974D01*
X102758212Y-55745000D01*
X102981788Y-55745000D01*
X102997000Y-55741974D01*
X102997000Y-55753000D01*
X103008026Y-55753000D01*
X103005000Y-55768212D01*
X103005000Y-55991788D01*
X103008026Y-56007000D01*
X102997000Y-56007000D01*
X102997000Y-57023000D01*
X103008026Y-57023000D01*
X103005000Y-57038212D01*
X103005000Y-57261788D01*
X103008026Y-57277000D01*
X102997000Y-57277000D01*
X102997000Y-57281928D01*
X102743000Y-57281928D01*
X102743000Y-57277000D01*
X101902046Y-57277000D01*
X101775881Y-57451874D01*
X101792554Y-57506864D01*
X101828070Y-57586820D01*
X101780498Y-57675820D01*
X101744188Y-57795518D01*
X101731928Y-57920000D01*
X101731928Y-58485001D01*
X98447514Y-58485001D01*
X98493411Y-58465990D01*
X98736632Y-58303475D01*
X98943475Y-58096632D01*
X99105990Y-57853411D01*
X99217932Y-57583158D01*
X99275000Y-57296260D01*
X99275000Y-57003740D01*
X99217932Y-56716842D01*
X99105990Y-56446589D01*
X98943475Y-56203368D01*
X98921981Y-56181874D01*
X101775881Y-56181874D01*
X101792554Y-56236864D01*
X101882877Y-56440206D01*
X101935639Y-56515000D01*
X101882877Y-56589794D01*
X101792554Y-56793136D01*
X101775881Y-56848126D01*
X101902046Y-57023000D01*
X102743000Y-57023000D01*
X102743000Y-56007000D01*
X101902046Y-56007000D01*
X101775881Y-56181874D01*
X98921981Y-56181874D01*
X98736632Y-55996525D01*
X98562240Y-55880000D01*
X98736632Y-55763475D01*
X98943475Y-55556632D01*
X99105990Y-55313411D01*
X99217932Y-55043158D01*
X99275000Y-54756260D01*
X99275000Y-54463740D01*
X99217932Y-54176842D01*
X99105990Y-53906589D01*
X98943475Y-53663368D01*
X98736632Y-53456525D01*
X98493411Y-53294010D01*
X98223158Y-53182068D01*
X97936260Y-53125000D01*
X97643740Y-53125000D01*
X97356842Y-53182068D01*
X97086589Y-53294010D01*
X96843368Y-53456525D01*
X96636525Y-53663368D01*
X96514805Y-53845534D01*
X96445178Y-53728645D01*
X96250269Y-53512412D01*
X96016920Y-53338359D01*
X95754099Y-53213175D01*
X95606890Y-53168524D01*
X95377000Y-53289845D01*
X95377000Y-54483000D01*
X95397000Y-54483000D01*
X95397000Y-54737000D01*
X95377000Y-54737000D01*
X95377000Y-54757000D01*
X95123000Y-54757000D01*
X95123000Y-54737000D01*
X95103000Y-54737000D01*
X95103000Y-54483000D01*
X95123000Y-54483000D01*
X95123000Y-53289845D01*
X94893110Y-53168524D01*
X94745901Y-53213175D01*
X94483080Y-53338359D01*
X94249731Y-53512412D01*
X94054822Y-53728645D01*
X93985195Y-53845534D01*
X93863475Y-53663368D01*
X93656632Y-53456525D01*
X93413411Y-53294010D01*
X93143158Y-53182068D01*
X92856260Y-53125000D01*
X92563740Y-53125000D01*
X92276842Y-53182068D01*
X92006589Y-53294010D01*
X91763368Y-53456525D01*
X91556525Y-53663368D01*
X91440000Y-53837760D01*
X91323475Y-53663368D01*
X91116632Y-53456525D01*
X90873411Y-53294010D01*
X90603158Y-53182068D01*
X90316260Y-53125000D01*
X90023740Y-53125000D01*
X89736842Y-53182068D01*
X89466589Y-53294010D01*
X89223368Y-53456525D01*
X89016525Y-53663368D01*
X88854010Y-53906589D01*
X88742068Y-54176842D01*
X88685000Y-54463740D01*
X88685000Y-54756260D01*
X88738456Y-55025001D01*
X87242321Y-55025001D01*
X87204998Y-55021325D01*
X87167675Y-55025001D01*
X87167666Y-55025001D01*
X87056013Y-55035998D01*
X86912752Y-55079455D01*
X86780722Y-55150027D01*
X86750957Y-55174455D01*
X86664998Y-55245000D01*
X86641200Y-55273998D01*
X86162201Y-55752998D01*
X86057955Y-55752998D01*
X86184119Y-55578126D01*
X86167446Y-55523136D01*
X86077123Y-55319794D01*
X86027647Y-55249658D01*
X86095824Y-55147624D01*
X86181383Y-54941067D01*
X86225000Y-54721788D01*
X86225000Y-54498212D01*
X86181383Y-54278933D01*
X86095824Y-54072376D01*
X85971612Y-53886480D01*
X85813520Y-53728388D01*
X85627624Y-53604176D01*
X85421067Y-53518617D01*
X85201788Y-53475000D01*
X84978212Y-53475000D01*
X84758933Y-53518617D01*
X84552376Y-53604176D01*
X84455000Y-53669241D01*
X84357624Y-53604176D01*
X84151067Y-53518617D01*
X83931788Y-53475000D01*
X83708212Y-53475000D01*
X83488933Y-53518617D01*
X83282376Y-53604176D01*
X83096480Y-53728388D01*
X82938388Y-53886480D01*
X82814176Y-54072376D01*
X82728617Y-54278933D01*
X82685000Y-54498212D01*
X82685000Y-54721788D01*
X82728617Y-54941067D01*
X82814176Y-55147624D01*
X82879241Y-55245000D01*
X82814176Y-55342376D01*
X82728617Y-55548933D01*
X82685000Y-55768212D01*
X82685000Y-55940199D01*
X82483997Y-56141202D01*
X82454999Y-56165000D01*
X82431201Y-56193998D01*
X82431200Y-56193999D01*
X82360025Y-56280725D01*
X82289453Y-56412755D01*
X82245997Y-56556016D01*
X82231323Y-56705001D01*
X81940000Y-56705001D01*
X81940000Y-51460000D01*
X106020000Y-51460000D01*
X106020001Y-60300000D01*
G36*
X85217000Y-55753000D02*
G01*
X85237000Y-55753000D01*
X85237000Y-56007000D01*
X85217000Y-56007000D01*
X85217000Y-56011928D01*
X84963000Y-56011928D01*
X84963000Y-56007000D01*
X84951974Y-56007000D01*
X84955000Y-55991788D01*
X84955000Y-55768212D01*
X84951974Y-55753000D01*
X84963000Y-55753000D01*
X84963000Y-55741974D01*
X84978212Y-55745000D01*
X85201788Y-55745000D01*
X85217000Y-55741974D01*
X85217000Y-55753000D01*
G37*
X85217000Y-55753000D02*
X85237000Y-55753000D01*
X85237000Y-56007000D01*
X85217000Y-56007000D01*
X85217000Y-56011928D01*
X84963000Y-56011928D01*
X84963000Y-56007000D01*
X84951974Y-56007000D01*
X84955000Y-55991788D01*
X84955000Y-55768212D01*
X84951974Y-55753000D01*
X84963000Y-55753000D01*
X84963000Y-55741974D01*
X84978212Y-55745000D01*
X85201788Y-55745000D01*
X85217000Y-55741974D01*
X85217000Y-55753000D01*
M02*
