M48
; DRILL file {KiCad (5.1.5)-3} date 03/30/20 22:38:01
; FORMAT={-:-/ absolute / inch / decimal}
; #@! TF.CreationDate,2020-03-30T22:38:01+02:00
; #@! TF.GenerationSoftware,Kicad,Pcbnew,(5.1.5)-3
; #@! TF.FileFunction,Plated,1,2,PTH
FMAT,2
INCH
T1C0.0157
T2C0.0256
T3C0.0394
%
G90
G05
T1
X3.95Y-2.1
T2
X4.05Y-2.1
X4.05Y-2.15
X4.05Y-2.2
X4.05Y-2.25
X4.05Y-2.3
X4.1Y-2.1
X4.1Y-2.15
X4.1Y-2.2
X4.1Y-2.25
X4.1Y-2.3
X3.3Y-2.15
X3.3Y-2.2
X3.3Y-2.25
X3.35Y-2.15
X3.35Y-2.2
X3.35Y-2.25
T3
X3.55Y-2.15
X3.55Y-2.25
X3.65Y-2.15
X3.65Y-2.25
X3.75Y-2.15
X3.75Y-2.25
X3.85Y-2.15
X3.85Y-2.25
T0
M30
